<svg xmlns="http://www.w3.org/2000/svg" xmlns:xlink="http://www.w3.org/1999/xlink" width="500" zoomAndPan="magnify" viewBox="0 0 375 172.499995" height="230" preserveAspectRatio="xMidYMid meet" version="1.0"><defs><g/></defs><g fill="#f9a11b" fill-opacity="1"><g transform="translate(27.308653, 117.822482)"><g><path d="M 2.875 -35.90625 C 2.875 -42.789062 4.378906 -49.007812 7.390625 -54.5625 C 10.410156 -60.113281 14.625 -64.515625 20.03125 -67.765625 C 25.4375 -71.023438 31.632812 -72.65625 38.625 -72.65625 C 41.40625 -72.65625 43.5625 -72.507812 45.09375 -72.21875 C 46.625 -71.9375 48.441406 -71.796875 50.546875 -71.796875 C 52.171875 -71.796875 53.703125 -71.9375 55.140625 -72.21875 C 56.578125 -72.507812 57.867188 -72.65625 59.015625 -72.65625 C 59.785156 -72.65625 60.457031 -72.507812 61.03125 -72.21875 C 61.601562 -71.9375 62.082031 -71.363281 62.46875 -70.5 C 64.09375 -66.476562 65.523438 -62.71875 66.765625 -59.21875 C 68.015625 -55.726562 68.660156 -52.90625 68.703125 -50.75 C 68.753906 -48.601562 67.628906 -47.53125 65.328125 -47.53125 C 63.222656 -47.53125 61.453125 -48.367188 60.015625 -50.046875 C 58.585938 -51.722656 57.101562 -53.679688 55.5625 -55.921875 C 54.03125 -58.171875 52.1875 -60.132812 50.03125 -61.8125 C 47.882812 -63.488281 45.039062 -64.328125 41.5 -64.328125 C 38.144531 -64.328125 35.414062 -62.984375 33.3125 -60.296875 C 31.207031 -57.617188 29.675781 -54.125 28.71875 -49.8125 C 27.757812 -45.507812 27.28125 -40.875 27.28125 -35.90625 C 27.28125 -30.925781 27.757812 -26.234375 28.71875 -21.828125 C 29.675781 -17.421875 31.207031 -13.828125 33.3125 -11.046875 C 35.414062 -8.273438 38.238281 -6.890625 41.78125 -6.890625 C 44.945312 -6.890625 47.316406 -7.65625 48.890625 -9.1875 C 50.472656 -10.71875 51.691406 -12.609375 52.546875 -14.859375 C 53.410156 -17.109375 54.203125 -19.359375 54.921875 -21.609375 C 55.640625 -23.859375 56.664062 -25.75 58 -27.28125 C 59.34375 -28.8125 61.3125 -29.578125 63.90625 -29.578125 C 66.863281 -29.578125 69.0625 -28.546875 70.5 -26.484375 C 71.9375 -24.429688 72.460938 -21.894531 72.078125 -18.875 C 71.703125 -15.863281 70.289062 -12.847656 67.84375 -9.828125 C 65.40625 -6.816406 61.789062 -4.28125 57 -2.21875 C 52.21875 -0.164062 46.09375 0.859375 38.625 0.859375 C 31.351562 0.859375 25.035156 -0.765625 19.671875 -4.015625 C 14.304688 -7.273438 10.164062 -11.679688 7.25 -17.234375 C 4.332031 -22.785156 2.875 -29.007812 2.875 -35.90625 Z M 2.875 -35.90625 "/></g></g></g><g fill="#f9a11b" fill-opacity="1"><g transform="translate(102.122078, 117.822482)"><g><path d="M 18.234375 0 C 16.796875 0 15.09375 0.140625 13.125 0.421875 C 11.164062 0.710938 9.328125 0.859375 7.609375 0.859375 C 5.984375 0.859375 4.617188 0.617188 3.515625 0.140625 C 2.410156 -0.335938 1.859375 -1.296875 1.859375 -2.734375 C 1.859375 -3.785156 2.097656 -4.570312 2.578125 -5.09375 C 3.054688 -5.625 3.628906 -6.296875 4.296875 -7.109375 C 4.972656 -7.921875 5.550781 -9.1875 6.03125 -10.90625 C 6.507812 -12.632812 6.75 -15.175781 6.75 -18.53125 C 6.75 -22.925781 6.769531 -26.101562 6.8125 -28.0625 C 6.863281 -30.03125 6.890625 -31.46875 6.890625 -32.375 C 6.890625 -33.289062 6.890625 -34.320312 6.890625 -35.46875 C 6.890625 -38.050781 6.484375 -39.84375 5.671875 -40.84375 C 4.859375 -41.851562 4.046875 -42.644531 3.234375 -43.21875 C 2.421875 -43.789062 2.015625 -44.703125 2.015625 -45.953125 C 2.015625 -47.390625 2.488281 -48.367188 3.4375 -48.890625 C 4.394531 -49.421875 5.757812 -49.875 7.53125 -50.25 C 9.300781 -50.632812 11.429688 -51.257812 13.921875 -52.125 C 16.992188 -53.269531 19.101562 -54.296875 20.25 -55.203125 C 21.394531 -56.117188 22.253906 -56.863281 22.828125 -57.4375 C 23.398438 -58.007812 24.3125 -58.296875 25.5625 -58.296875 C 27.28125 -58.296875 28.425781 -57.53125 29 -56 C 29.582031 -54.46875 29.875 -52.648438 29.875 -50.546875 L 29.875 -18.53125 C 29.875 -15.175781 30.109375 -12.632812 30.578125 -10.90625 C 31.054688 -9.1875 31.628906 -7.921875 32.296875 -7.109375 C 32.972656 -6.296875 33.550781 -5.625 34.03125 -5.09375 C 34.507812 -4.570312 34.75 -3.785156 34.75 -2.734375 C 34.75 -1.296875 34.195312 -0.335938 33.09375 0.140625 C 32 0.617188 30.632812 0.859375 29 0.859375 C 27.1875 0.859375 25.296875 0.710938 23.328125 0.421875 C 21.367188 0.140625 19.671875 0 18.234375 0 Z M 1.859375 -62.3125 C 0.910156 -65.1875 1.414062 -68.296875 3.375 -71.640625 C 5.332031 -74.992188 8.320312 -77.726562 12.34375 -79.84375 C 15.695312 -81.5625 18.765625 -82.421875 21.546875 -82.421875 C 25.753906 -82.421875 28.476562 -80.695312 29.71875 -77.25 C 30.769531 -74.28125 30.316406 -71.164062 28.359375 -67.90625 C 26.398438 -64.65625 23.410156 -61.929688 19.390625 -59.734375 C 15.941406 -58.015625 12.828125 -57.15625 10.046875 -57.15625 C 5.929688 -57.15625 3.203125 -58.875 1.859375 -62.3125 Z M 1.859375 -62.3125 "/></g></g></g><g fill="#f9a11b" fill-opacity="1"><g transform="translate(139.313429, 117.822482)"><g><path d="M 1.4375 -2.734375 C 1.4375 -3.785156 1.675781 -4.570312 2.15625 -5.09375 C 2.632812 -5.625 3.207031 -6.296875 3.875 -7.109375 C 4.539062 -7.921875 5.113281 -9.1875 5.59375 -10.90625 C 6.070312 -12.632812 6.3125 -15.175781 6.3125 -18.53125 C 6.3125 -22.925781 6.335938 -26.101562 6.390625 -28.0625 C 6.441406 -30.03125 6.46875 -31.46875 6.46875 -32.375 C 6.46875 -33.289062 6.46875 -34.320312 6.46875 -35.46875 C 6.46875 -38.050781 6.054688 -39.84375 5.234375 -40.84375 C 4.421875 -41.851562 3.609375 -42.644531 2.796875 -43.21875 C 1.984375 -43.789062 1.578125 -44.703125 1.578125 -45.953125 C 1.578125 -47.390625 2.054688 -48.367188 3.015625 -48.890625 C 3.972656 -49.421875 5.335938 -49.875 7.109375 -50.25 C 8.878906 -50.632812 11.007812 -51.257812 13.5 -52.125 C 16.5625 -53.269531 18.664062 -54.296875 19.8125 -55.203125 C 20.96875 -56.117188 21.832031 -56.863281 22.40625 -57.4375 C 22.976562 -58.007812 23.882812 -58.296875 25.125 -58.296875 C 26.851562 -58.296875 28.003906 -57.53125 28.578125 -56 C 29.148438 -54.46875 29.4375 -52.648438 29.4375 -50.546875 L 29.4375 -49.390625 C 29.4375 -48.054688 29.675781 -47.390625 30.15625 -47.390625 C 30.632812 -47.390625 31.398438 -47.9375 32.453125 -49.03125 C 33.503906 -50.132812 34.867188 -51.40625 36.546875 -52.84375 C 38.222656 -54.28125 40.234375 -55.546875 42.578125 -56.640625 C 44.921875 -57.742188 47.578125 -58.296875 50.546875 -58.296875 C 55.046875 -58.296875 58.441406 -57.335938 60.734375 -55.421875 C 63.035156 -53.515625 64.59375 -51.125 65.40625 -48.25 C 66.21875 -45.375 66.625 -42.453125 66.625 -39.484375 L 66.625 -18.53125 C 66.625 -15.175781 66.863281 -12.632812 67.34375 -10.90625 C 67.820312 -9.1875 68.394531 -7.921875 69.0625 -7.109375 C 69.738281 -6.296875 70.316406 -5.625 70.796875 -5.09375 C 71.273438 -4.570312 71.515625 -3.785156 71.515625 -2.734375 C 71.515625 -1.296875 71.101562 -0.335938 70.28125 0.140625 C 69.46875 0.617188 68.394531 0.859375 67.0625 0.859375 C 65.71875 0.859375 64.160156 0.710938 62.390625 0.421875 C 60.617188 0.140625 58.921875 0 57.296875 0 C 55.765625 0 54.445312 0.0703125 53.34375 0.21875 C 52.238281 0.363281 51.066406 0.53125 49.828125 0.71875 C 47.910156 0.90625 46.351562 0.472656 45.15625 -0.578125 C 43.957031 -1.628906 43.359375 -3.113281 43.359375 -5.03125 L 43.359375 -28.578125 C 43.359375 -33.171875 42.878906 -36.660156 41.921875 -39.046875 C 40.972656 -41.441406 39.253906 -42.640625 36.765625 -42.640625 C 34.554688 -42.640625 32.78125 -41.515625 31.4375 -39.265625 C 30.101562 -37.023438 29.4375 -32.410156 29.4375 -25.421875 L 29.4375 -18.53125 C 29.4375 -15.175781 29.675781 -12.632812 30.15625 -10.90625 C 30.632812 -9.1875 31.207031 -7.921875 31.875 -7.109375 C 32.550781 -6.296875 33.125 -5.625 33.59375 -5.09375 C 34.070312 -4.570312 34.3125 -3.785156 34.3125 -2.734375 C 34.3125 -1.296875 33.757812 -0.335938 32.65625 0.140625 C 31.5625 0.617188 30.203125 0.859375 28.578125 0.859375 C 26.753906 0.859375 24.859375 0.710938 22.890625 0.421875 C 20.929688 0.140625 19.238281 0 17.8125 0 C 16.375 0 14.671875 0.140625 12.703125 0.421875 C 10.742188 0.710938 8.90625 0.859375 7.1875 0.859375 C 5.550781 0.859375 4.179688 0.617188 3.078125 0.140625 C 1.984375 -0.335938 1.4375 -1.296875 1.4375 -2.734375 Z M 1.4375 -2.734375 "/></g></g></g><g fill="#f9a11b" fill-opacity="1"><g transform="translate(213.408872, 117.822482)"><g><path d="M 34.609375 0.859375 C 29.535156 0.859375 24.554688 -0.144531 19.671875 -2.15625 C 14.785156 -4.164062 10.765625 -7.320312 7.609375 -11.625 C 4.453125 -15.9375 2.875 -21.585938 2.875 -28.578125 C 2.875 -34.515625 4.164062 -39.707031 6.75 -44.15625 C 9.332031 -48.601562 12.921875 -52.070312 17.515625 -54.5625 C 22.109375 -57.050781 27.421875 -58.296875 33.453125 -58.296875 C 39.390625 -58.296875 44.222656 -57.578125 47.953125 -56.140625 C 51.691406 -54.703125 54.585938 -52.859375 56.640625 -50.609375 C 58.703125 -48.367188 60.113281 -46.070312 60.875 -43.71875 C 61.644531 -41.375 62.03125 -39.34375 62.03125 -37.625 C 62.03125 -32.832031 60.546875 -28.925781 57.578125 -25.90625 C 54.609375 -22.894531 50.828125 -20.695312 46.234375 -19.3125 C 41.640625 -17.925781 36.953125 -17.234375 32.171875 -17.234375 C 30.828125 -17.234375 29.84375 -16.753906 29.21875 -15.796875 C 28.59375 -14.835938 28.398438 -13.734375 28.640625 -12.484375 C 28.878906 -11.242188 29.644531 -10.144531 30.9375 -9.1875 C 32.238281 -8.226562 34.082031 -7.75 36.46875 -7.75 C 39.914062 -7.75 42.644531 -8.367188 44.65625 -9.609375 C 46.664062 -10.859375 48.269531 -12.296875 49.46875 -13.921875 C 50.664062 -15.554688 51.8125 -16.992188 52.90625 -18.234375 C 54.007812 -19.484375 55.472656 -20.109375 57.296875 -20.109375 C 58.921875 -20.109375 60.140625 -19.601562 60.953125 -18.59375 C 61.765625 -17.59375 62.171875 -16.46875 62.171875 -15.21875 C 62.171875 -11.96875 60.898438 -9.144531 58.359375 -6.75 C 55.828125 -4.351562 52.453125 -2.484375 48.234375 -1.140625 C 44.023438 0.191406 39.484375 0.859375 34.609375 0.859375 Z M 33.453125 -50.96875 C 31.441406 -50.96875 29.835938 -49.769531 28.640625 -47.375 C 27.453125 -44.988281 26.859375 -41.785156 26.859375 -37.765625 C 26.859375 -33.742188 27.453125 -30.535156 28.640625 -28.140625 C 29.835938 -25.742188 31.441406 -24.546875 33.453125 -24.546875 C 35.460938 -24.546875 37.066406 -25.742188 38.265625 -28.140625 C 39.460938 -30.535156 40.0625 -33.742188 40.0625 -37.765625 C 40.0625 -41.785156 39.460938 -44.988281 38.265625 -47.375 C 37.066406 -49.769531 35.460938 -50.96875 33.453125 -50.96875 Z M 33.453125 -50.96875 "/></g></g></g><g fill="#f9a11b" fill-opacity="1"><g transform="translate(279.606545, 117.822482)"><g><path d="M 34.03125 0.859375 C 24.457031 0.859375 16.867188 -1.75 11.265625 -6.96875 C 5.671875 -12.1875 2.875 -19.4375 2.875 -28.71875 C 2.875 -38.101562 5.671875 -45.378906 11.265625 -50.546875 C 16.867188 -55.710938 24.457031 -58.296875 34.03125 -58.296875 C 43.601562 -58.296875 51.1875 -55.710938 56.78125 -50.546875 C 62.382812 -45.378906 65.1875 -38.101562 65.1875 -28.71875 C 65.1875 -19.4375 62.382812 -12.1875 56.78125 -6.96875 C 51.1875 -1.75 43.601562 0.859375 34.03125 0.859375 Z M 26.5625 -28.71875 C 26.5625 -24.789062 26.773438 -21.175781 27.203125 -17.875 C 27.640625 -14.570312 28.40625 -11.960938 29.5 -10.046875 C 30.601562 -8.140625 32.113281 -7.1875 34.03125 -7.1875 C 36.039062 -7.1875 37.59375 -8.140625 38.6875 -10.046875 C 39.789062 -11.960938 40.535156 -14.570312 40.921875 -17.875 C 41.304688 -21.175781 41.5 -24.789062 41.5 -28.71875 C 41.5 -32.738281 41.304688 -36.375 40.921875 -39.625 C 40.535156 -42.882812 39.789062 -45.472656 38.6875 -47.390625 C 37.59375 -49.304688 36.039062 -50.265625 34.03125 -50.265625 C 32.113281 -50.265625 30.601562 -49.304688 29.5 -47.390625 C 28.40625 -45.472656 27.640625 -42.882812 27.203125 -39.625 C 26.773438 -36.375 26.5625 -32.738281 26.5625 -28.71875 Z M 26.5625 -28.71875 "/></g></g></g></svg>